<?xml version="1.0" standalone="no"?>
<!DOCTYPE svg PUBLIC "-//W3C//DTD SVG 20010904//EN"
 "http://www.w3.org/TR/2001/REC-SVG-20010904/DTD/svg10.dtd">
<svg version="1.0" xmlns="http://www.w3.org/2000/svg"
 width="500.000000pt" height="500.000000pt" viewBox="0 0 500.000000 500.000000"
 preserveAspectRatio="xMidYMid meet">

<g transform="translate(0.000000,500.000000) scale(0.100000,-0.100000)"
fill="#000000" stroke="none">
<path d="M0 2500 l0 -2500 2500 0 2500 0 0 2500 0 2500 -2500 0 -2500 0 0
-2500z m1922 150 c59 -168 108 -311 108 -317 0 -9 -17 -13 -54 -13 l-53 0 -78
223 c-43 122 -93 263 -111 314 -18 50 -30 94 -26 98 3 3 29 5 57 3 l50 -3 107
-305z m339 -5 c60 -170 109 -313 109 -317 0 -5 -24 -8 -54 -8 -42 0 -55 4 -61
18 -16 39 -215 611 -215 617 0 3 25 5 56 3 l57 -3 108 -310z m525 210 c27 -8
64 -27 83 -43 l34 -28 -46 -38 -46 -38 -27 21 c-56 44 -142 35 -189 -20 -20
-25 -25 -41 -25 -86 0 -49 4 -59 33 -88 40 -40 76 -51 126 -39 l36 9 3 68 3
68 57 -3 57 -3 3 -96 c3 -92 2 -97 -21 -112 -77 -50 -224 -59 -304 -19 -51 27
-106 90 -121 141 -61 202 128 371 344 306z m891 -13 c85 -44 133 -123 133
-217 0 -131 -94 -230 -230 -242 -116 -11 -221 45 -266 141 -61 131 7 286 146
331 59 19 166 13 217 -13z m-2597 -154 c0 -183 -10 -230 -56 -269 -62 -53
-197 -50 -260 5 -30 25 -26 42 20 85 l26 24 24 -22 c17 -16 33 -22 57 -19 50
5 60 32 57 158 l-3 105 -82 3 -83 3 0 49 0 50 150 0 150 0 0 -172z m442 162
c75 -21 128 -89 128 -165 0 -109 -88 -174 -237 -175 l-53 0 0 -60 0 -60 -65 0
-65 0 0 235 0 235 128 0 c70 0 144 -5 164 -10z m1638 -225 l0 -235 -65 0 -65
0 0 235 0 235 65 0 65 0 0 -235z m-920 -455 l0 -60 -745 0 -745 0 0 60 0 60
745 0 745 0 0 -60z m904 17 c12 -34 -15 -67 -54 -67 -35 0 -52 21 -48 57 6 56
83 63 102 10z m856 33 c12 -8 9 -10 -12 -10 -18 0 -28 -5 -28 -15 0 -8 8 -15
19 -15 24 0 45 -25 37 -45 -6 -17 -61 -21 -71 -6 -3 6 7 9 21 8 38 -3 41 19 4
31 -33 12 -39 36 -12 51 21 13 24 13 42 1z m-1564 -25 c15 -23 15 -27 0 -50
-13 -20 -25 -25 -56 -25 l-40 0 0 50 0 50 40 0 c31 0 43 -5 56 -25z m117 18
c-41 -5 -45 -32 -5 -34 l27 -2 -27 -4 c-42 -6 -38 -40 5 -46 28 -3 26 -4 -10
-5 l-43 -2 0 50 0 50 43 -2 c36 -1 38 -2 10 -5z m108 -31 l16 -37 18 38 c27
55 37 45 13 -13 -11 -27 -25 -50 -30 -50 -5 0 -18 21 -28 46 -22 51 -23 54
-12 54 4 0 14 -17 23 -38z m172 31 c-41 -5 -45 -32 -5 -34 l27 -2 -27 -4 c-42
-6 -38 -40 5 -46 28 -3 26 -4 -10 -5 l-43 -2 0 50 0 50 43 -2 c36 -1 38 -2 10
-5z m107 -37 c0 -41 2 -45 28 -49 22 -3 20 -4 -10 -6 l-38 -1 0 50 c0 28 5 50
10 50 6 0 10 -20 10 -44z m347 28 c9 -24 -10 -49 -40 -52 -14 -2 -28 -11 -30
-20 -3 -9 -5 7 -6 36 l-1 52 35 0 c24 0 38 -5 42 -16z m97 -15 c14 -24 21 -28
31 -19 8 7 17 20 20 31 12 37 25 18 24 -33 l-2 -53 -7 40 c-4 22 -8 36 -9 30
-1 -5 -10 -21 -20 -34 l-19 -24 -15 29 -16 29 -1 -32 c0 -18 -4 -33 -10 -33
-5 0 -10 23 -10 50 0 58 8 62 34 19z m194 24 c-16 -2 -28 -11 -28 -19 0 -8 11
-15 28 -15 l27 -2 -27 -4 c-42 -6 -38 -40 5 -46 28 -3 26 -4 -10 -5 l-43 -2 0
50 0 50 38 -1 c30 -2 32 -3 10 -6z m135 -30 l27 -36 0 36 c0 21 5 37 10 37 6
0 10 -22 10 -50 0 -27 -4 -50 -9 -50 -5 0 -23 17 -40 38 l-30 37 -1 -37 c0
-21 -4 -38 -10 -38 -5 0 -10 23 -10 50 0 61 14 64 53 13z m165 30 c-14 -3 -18
-15 -18 -49 0 -24 -4 -44 -10 -44 -5 0 -10 20 -10 44 0 34 -4 46 -17 49 -10 3
2 5 27 5 25 0 37 -2 28 -5z"/>
<path d="M3504 2750 c-11 -4 -33 -22 -47 -40 -52 -61 -30 -172 39 -205 40 -19
65 -19 107 -1 47 19 71 61 71 121 0 60 -24 102 -71 121 -36 16 -68 17 -99 4z"/>
<path d="M1360 2685 l0 -65 58 0 c74 0 97 21 93 82 -2 33 -30 48 -92 48 l-59
0 0 -65z"/>
<path d="M3060 2195 c-15 -19 -4 -52 21 -60 38 -12 65 35 37 63 -16 16 -43 15
-58 -3z"/>
<path d="M2360 2170 c0 -43 13 -50 51 -30 37 20 17 70 -28 70 -20 0 -23 -5
-23 -40z"/>
<path d="M3220 2190 c0 -17 5 -21 28 -18 16 2 27 9 27 18 0 9 -11 16 -27 18
-23 3 -28 -1 -28 -18z"/>
</g>
</svg>
